<svg width="56" height="10" viewBox="0 0 56 10" fill="none" xmlns="http://www.w3.org/2000/svg">
<path d="M6.01362 7.48311H7.76362L5.38362 0.483105H3.34362L0.963623 7.48311H2.71362L3.06362 6.38311H5.66362L6.01362 7.48311ZM3.54362 4.88311L4.36362 2.31311L5.18362 4.88311H3.54362Z" fill="white"/>
<path d="M11.3005 2.34311C10.6305 2.34311 10.1405 2.57311 9.8105 2.95311V2.48311H8.3105V9.48311H9.8105V7.01311C10.1405 7.39311 10.6305 7.62311 11.3005 7.62311C12.6105 7.62311 13.6905 6.47311 13.6905 4.98311C13.6905 3.49311 12.6105 2.34311 11.3005 2.34311ZM11.0005 6.20311C10.3105 6.20311 9.8105 5.73311 9.8105 4.98311C9.8105 4.23311 10.3105 3.76311 11.0005 3.76311C11.6905 3.76311 12.1905 4.23311 12.1905 4.98311C12.1905 5.73311 11.6905 6.20311 11.0005 6.20311Z" fill="white"/>
<path d="M17.531 2.34311C16.861 2.34311 16.371 2.57311 16.041 2.95311V2.48311H14.541V9.48311H16.041V7.01311C16.371 7.39311 16.861 7.62311 17.531 7.62311C18.841 7.62311 19.921 6.47311 19.921 4.98311C19.921 3.49311 18.841 2.34311 17.531 2.34311ZM17.231 6.20311C16.541 6.20311 16.041 5.73311 16.041 4.98311C16.041 4.23311 16.541 3.76311 17.231 3.76311C17.921 3.76311 18.421 4.23311 18.421 4.98311C18.421 5.73311 17.921 6.20311 17.231 6.20311Z" fill="white"/>
<path d="M20.7714 7.48311H22.2714V0.183105H20.7714V7.48311Z" fill="white"/>
<path d="M24.7091 5.58311H28.2591C28.2991 5.39311 28.3191 5.19311 28.3191 4.98311C28.3191 3.47311 27.2391 2.34311 25.7791 2.34311C24.1991 2.34311 23.1191 3.49311 23.1191 4.98311C23.1191 6.47311 24.1791 7.62311 25.8891 7.62311C26.8391 7.62311 27.5791 7.27311 28.0691 6.59311L26.8691 5.90311C26.6691 6.12311 26.3191 6.28311 25.9091 6.28311C25.3591 6.28311 24.8991 6.10311 24.7091 5.58311ZM24.6791 4.46311C24.8191 3.95311 25.1991 3.67311 25.7691 3.67311C26.2191 3.67311 26.6691 3.88311 26.8291 4.46311H24.6791Z" fill="white"/>
<path d="M34.1699 7.62311C35.6899 7.62311 36.7699 6.82311 36.7699 5.47311C36.7699 3.99311 35.5799 3.62311 34.5199 3.30311C33.4299 2.97311 33.2599 2.75311 33.2599 2.43311C33.2599 2.1531 33.5099 1.90311 34.0099 1.90311C34.6499 1.90311 34.9799 2.21311 35.2199 2.71311L36.5699 1.92311C36.0599 0.893105 35.1599 0.343105 34.0099 0.343105C32.7999 0.343105 31.6599 1.12311 31.6599 2.47311C31.6599 3.81311 32.6799 4.31311 33.7199 4.60311C34.7699 4.89311 35.1699 5.06311 35.1699 5.49311C35.1699 5.76311 34.9799 6.06311 34.2199 6.06311C33.4299 6.06311 32.9999 5.67311 32.7499 5.09311L31.3699 5.89311C31.7599 6.92311 32.6999 7.62311 34.1699 7.62311Z" fill="white"/>
<path d="M40.303 3.92311V2.48311H39.273V1.08311L37.773 1.53311V2.48311H36.973V3.92311H37.773V5.69311C37.773 7.09311 38.343 7.68311 40.303 7.48311V6.12311C39.643 6.16311 39.273 6.12311 39.273 5.69311V3.92311H40.303Z" fill="white"/>
<path d="M43.4546 7.62311C44.9246 7.62311 46.1046 6.47311 46.1046 4.98311C46.1046 3.49311 44.9246 2.34311 43.4546 2.34311C41.9846 2.34311 40.8046 3.49311 40.8046 4.98311C40.8046 6.47311 41.9846 7.62311 43.4546 7.62311ZM43.4546 6.16311C42.8046 6.16311 42.3046 5.69311 42.3046 4.98311C42.3046 4.27311 42.8046 3.80311 43.4546 3.80311C44.1046 3.80311 44.6046 4.27311 44.6046 4.98311C44.6046 5.69311 44.1046 6.16311 43.4546 6.16311Z" fill="white"/>
<path d="M48.4531 3.37311V2.48311H46.9531V7.48311H48.4531V5.22311C48.4531 4.23311 49.3331 3.98311 49.9531 4.08311V2.38311C49.3231 2.38311 48.6531 2.70311 48.4531 3.37311Z" fill="white"/>
<path d="M51.8478 5.58311H55.3978C55.4378 5.39311 55.4578 5.19311 55.4578 4.98311C55.4578 3.47311 54.3778 2.34311 52.9178 2.34311C51.3378 2.34311 50.2578 3.49311 50.2578 4.98311C50.2578 6.47311 51.3178 7.62311 53.0278 7.62311C53.9778 7.62311 54.7178 7.27311 55.2078 6.59311L54.0078 5.90311C53.8078 6.12311 53.4578 6.28311 53.0478 6.28311C52.4978 6.28311 52.0378 6.10311 51.8478 5.58311ZM51.8178 4.46311C51.9578 3.95311 52.3378 3.67311 52.9078 3.67311C53.3578 3.67311 53.8078 3.88311 53.9678 4.46311H51.8178Z" fill="white"/>
</svg>
