<svg width="69" height="70" viewBox="0 0 69 70" fill="none" xmlns="http://www.w3.org/2000/svg">
<path d="M34.5712 0.448364C15.6169 0.448364 0.248047 15.8172 0.248047 34.7716C0.248047 53.7259 15.6169 69.0948 34.5712 69.0948C53.5256 69.0948 68.8944 53.7259 68.8944 34.7716C68.8944 15.8172 53.5256 0.448364 34.5712 0.448364ZM45.6114 35.3002L28.8788 47.4742C28.7871 47.5401 28.6789 47.5795 28.5663 47.5879C28.4537 47.5964 28.3409 47.5737 28.2403 47.5222C28.1397 47.4707 28.0553 47.3925 27.9963 47.2962C27.9373 47.1999 27.906 47.0892 27.9058 46.9762V22.6435C27.9054 22.5303 27.9364 22.4193 27.9953 22.3226C28.0542 22.2259 28.1387 22.1475 28.2395 22.0959C28.3402 22.0443 28.4533 22.0217 28.5661 22.0304C28.679 22.0392 28.7872 22.079 28.8788 22.1455L45.6114 34.3119C45.6904 34.3678 45.7549 34.4418 45.7994 34.5278C45.8439 34.6138 45.8671 34.7092 45.8671 34.806C45.8671 34.9029 45.8439 34.9983 45.7994 35.0843C45.7549 35.1702 45.6904 35.2443 45.6114 35.3002Z" fill="#F1A501"/>
</svg>
