<svg width="54" height="7" viewBox="0 0 54 7" fill="none" xmlns="http://www.w3.org/2000/svg">
<path d="M5.66582 3.86809V4.08409C5.66582 4.78275 5.41782 5.37209 4.92182 5.85209C4.42582 6.32675 3.77249 6.56409 2.96182 6.56409C2.10849 6.56409 1.40449 6.28675 0.849822 5.73209C0.295156 5.17209 0.0178223 4.48675 0.0178223 3.67609C0.0178223 2.86542 0.292489 2.18275 0.841822 1.62809C1.39116 1.06809 2.08716 0.788086 2.92982 0.788086C3.44182 0.788086 3.91116 0.910753 4.33782 1.15609C4.76982 1.40142 5.10316 1.72942 5.33782 2.14009L4.96182 2.36409C4.77516 2.01209 4.49782 1.72942 4.12982 1.51609C3.76716 1.30275 3.36716 1.19609 2.92982 1.19609C2.20449 1.19609 1.60716 1.43609 1.13782 1.91609C0.673822 2.39075 0.441822 2.97742 0.441822 3.67609C0.441822 4.37475 0.676489 4.96409 1.14582 5.44409C1.61516 5.91875 2.22049 6.15609 2.96182 6.15609C3.61782 6.15609 4.14849 5.97742 4.55382 5.62009C4.95916 5.26275 5.18582 4.81209 5.23382 4.26809H2.85782V3.86809H5.66582Z" fill="white"/>
<path d="M11.3444 5.72409C10.7844 6.28409 10.1018 6.56409 9.29645 6.56409C8.49111 6.56409 7.80845 6.28409 7.24845 5.72409C6.68845 5.15875 6.40845 4.47609 6.40845 3.67609C6.40845 2.87609 6.68845 2.19609 7.24845 1.63609C7.80845 1.07075 8.49111 0.788086 9.29645 0.788086C10.1018 0.788086 10.7844 1.07075 11.3444 1.63609C11.9044 2.19609 12.1844 2.87609 12.1844 3.67609C12.1844 4.47609 11.9044 5.15875 11.3444 5.72409ZM7.54445 5.43609C8.02445 5.91609 8.60845 6.15609 9.29645 6.15609C9.98445 6.15609 10.5658 5.91609 11.0404 5.43609C11.5204 4.95075 11.7604 4.36409 11.7604 3.67609C11.7604 2.98809 11.5204 2.40409 11.0404 1.92409C10.5658 1.43875 9.98445 1.19609 9.29645 1.19609C8.60845 1.19609 8.02445 1.43875 7.54445 1.92409C7.06978 2.40409 6.83245 2.98809 6.83245 3.67609C6.83245 4.36409 7.06978 4.95075 7.54445 5.43609Z" fill="white"/>
<path d="M17.8757 5.72409C17.3157 6.28409 16.633 6.56409 15.8277 6.56409C15.0224 6.56409 14.3397 6.28409 13.7797 5.72409C13.2197 5.15875 12.9397 4.47609 12.9397 3.67609C12.9397 2.87609 13.2197 2.19609 13.7797 1.63609C14.3397 1.07075 15.0224 0.788086 15.8277 0.788086C16.633 0.788086 17.3157 1.07075 17.8757 1.63609C18.4357 2.19609 18.7157 2.87609 18.7157 3.67609C18.7157 4.47609 18.4357 5.15875 17.8757 5.72409ZM14.0757 5.43609C14.5557 5.91609 15.1397 6.15609 15.8277 6.15609C16.5157 6.15609 17.097 5.91609 17.5717 5.43609C18.0517 4.95075 18.2917 4.36409 18.2917 3.67609C18.2917 2.98809 18.0517 2.40409 17.5717 1.92409C17.097 1.43875 16.5157 1.19609 15.8277 1.19609C15.1397 1.19609 14.5557 1.43875 14.0757 1.92409C13.601 2.40409 13.3637 2.98809 13.3637 3.67609C13.3637 4.36409 13.601 4.95075 14.0757 5.43609Z" fill="white"/>
<path d="M25.1189 3.86809V4.08409C25.1189 4.78275 24.8709 5.37209 24.3749 5.85209C23.8789 6.32675 23.2256 6.56409 22.4149 6.56409C21.5616 6.56409 20.8576 6.28675 20.3029 5.73209C19.7483 5.17209 19.4709 4.48675 19.4709 3.67609C19.4709 2.86542 19.7456 2.18275 20.2949 1.62809C20.8443 1.06809 21.5403 0.788086 22.3829 0.788086C22.8949 0.788086 23.3643 0.910753 23.7909 1.15609C24.2229 1.40142 24.5563 1.72942 24.7909 2.14009L24.4149 2.36409C24.2283 2.01209 23.9509 1.72942 23.5829 1.51609C23.2203 1.30275 22.8203 1.19609 22.3829 1.19609C21.6576 1.19609 21.0603 1.43609 20.5909 1.91609C20.1269 2.39075 19.8949 2.97742 19.8949 3.67609C19.8949 4.37475 20.1296 4.96409 20.5989 5.44409C21.0683 5.91875 21.6736 6.15609 22.4149 6.15609C23.0709 6.15609 23.6016 5.97742 24.0069 5.62009C24.4123 5.26275 24.6389 4.81209 24.6869 4.26809H22.3109V3.86809H25.1189Z" fill="white"/>
<path d="M26.6056 6.07609H29.2456V6.47609H26.1816V0.876085H26.6056V6.07609Z" fill="white"/>
<path d="M30.5509 6.07609H33.3509V6.47609H30.1269V0.876085H33.3109V1.27609H30.5509V3.45209H33.1109V3.85209H30.5509V6.07609Z" fill="white"/>
<path d="M38.4293 0.876085C38.9307 0.876085 39.3467 1.04142 39.6773 1.37209C40.008 1.70275 40.1733 2.11609 40.1733 2.61209C40.1733 3.10809 40.008 3.52142 39.6773 3.85209C39.3467 4.17742 38.9307 4.34009 38.4293 4.34009H36.9493V6.47609H36.5253V0.876085H38.4293ZM38.4293 3.94009C38.8133 3.94009 39.128 3.81475 39.3733 3.56409C39.624 3.31342 39.7493 2.99609 39.7493 2.61209C39.7493 2.22275 39.624 1.90275 39.3733 1.65209C39.128 1.40142 38.8133 1.27609 38.4293 1.27609H36.9493V3.94009H38.4293Z" fill="white"/>
<path d="M41.6446 6.07609H44.2846V6.47609H41.2206V0.876085H41.6446V6.07609Z" fill="white"/>
<path d="M49.0902 6.47609L48.5462 5.05209H45.7382L45.1942 6.47609H44.7462L46.9222 0.876085H47.3702L49.5382 6.47609H49.0902ZM45.8982 4.65209H48.3942L47.1462 1.39609L45.8982 4.65209Z" fill="white"/>
<path d="M53.5227 0.876085L51.4827 4.17209V6.47609H51.0587V4.17209L49.0187 0.876085H49.4987L51.2747 3.76409L53.0427 0.876085H53.5227Z" fill="white"/>
</svg>
